{"title":"The Crush (1993) Alicia Silverstone + Cary Elwes","uid":5468626,"size":733901301,"categoryP":"video","categoryS":"movies","magnet":"?xt=urn:btih:444098f2582c7e45258393783424979df25519dd&amp;dn=The+Crush+%281993%29+Alicia+Silverstone+%2B+Cary+Elwes&amp;tr=udp%3A%2F%2Ftracker.openbittorrent.com%3A80&amp;tr=udp%3A%2F%2Fopen.demonii.com%3A1337&amp;tr=udp%3A%2F%2Ftracker.coppersurfer.tk%3A6969&amp;tr=udp%3A%2F%2Fexodus.desync.com%3A6969","seeders":5,"leechers":1,"uploader":"Kuthumi","files":-1,"time":1269761679,"description":"The Crush (1993) Alicia Silverstone + Cary Elwes\n &lt;a href=&quot;\nhttp://www.imdb.com/title/tt0106627/&quot; rel=&quot;nofollow&quot; target=&quot;_NEW&quot;&gt;\nhttp://www.imdb.com/title/tt0106627/&lt;/a&gt;\n\nA journalist becomes the unwanted center of attention for a 14-year-old girl who starts to show increasingly disturbing behaviour after he refuses her sexual advances.\n\nThis excellent drama shows the phenomenal acting potential of a very young Alicia Silverstone (then only 17) in her first full-feature film. Also a good portrait of a young and sympathetic Cary Elwes.\n\nThis is not my rip, I found it on the net and thought it should be represented here. Perfect quality for picture and stereo sound.\n\nWidescreen DVDrip XviD 640x346, great stereo sound AC3.\nRuns well in both my standalone DivX players.\n\n\nFormat/Info                      : Audio Video Interleave\nFile size                        : 700 MiB\nDuration                         : 1h 28mn\nOveral bit rate                  : 1104 Kbps\nWriting application              : VirtualDubMod 1.5.10.2 (build 2540/release)\nWriting library                  : VirtualDub build 29958/release\n\nVideo\nFormat                           : MPEG-4 Visual\nFormat profile                   : Streaming Video@L1\nFormat settings, BVOP            : Yes\nFormat settings, QPel            : No\nFormat settings, GMC             : No warppoints\nFormat settings, Matrix          : Default\nMuxing mode                      : Packet Bitstream\nCodec ID                         : XVID\nCodec ID/Hint                    : XviD\nDuration                         : 1h 28mn\nBit rate                         : 966 Kbps\nWidth                            : 640 pixels\nHeight                           : 346 pixels\nDisplay aspect ratio             : 1.850\nFrame rate                       : 23.976 fps\nResolution                       : 8 bits\nColorimetry                      : 4:2:0\nScan type                        : Progressive\nBits/(Pixel*Frame)               : 0.182\nStream size                      : 613 MiB\nWriting library                  : XviD 1.2.0SMP (UTC 2006-01-08)\n\nAudio\nFormat                           : MPEG Audio\nFormat version                   : Version 1\nFormat profile                   : Layer 3\nCodec ID                         : 55\nCodec ID/Hint                    : MP3\nDuration                         : 1h 28mn\nBit rate mode                    : Constant\nBit rate                         : 128 Kbps\nChannel(s)                       : 2 channels\nSampling rate                    : 48.0 KHz\nResolution                       : 16 bits\nVideo delay                      : 24ms\nStream size                      : 81.2 MiB\n\nWith thanks to the original ripper and uploader.","torrent":{"xt":"urn:btih:444098f2582c7e45258393783424979df25519dd","amp;dn":"The+Crush+%281993%29+Alicia+Silverstone+%2B+Cary+Elwes","amp;tr":["udp%3A%2F%2Ftracker.openbittorrent.com%3A80","udp%3A%2F%2Fopen.demonii.com%3A1337","udp%3A%2F%2Ftracker.coppersurfer.tk%3A6969","udp%3A%2F%2Fexodus.desync.com%3A6969"],"infoHash":"444098f2582c7e45258393783424979df25519dd","infoHashBuffer":{"type":"Buffer","data":[68,64,152,242,88,44,126,69,37,131,147,120,52,36,151,157,242,85,25,221]},"announce":[],"urlList":[]}}